<svg width="512" height="512" viewBox="0 0 512 512" fill="none" xmlns="http://www.w3.org/2000/svg">
<g clip-path="url(#clip0_7_4)">
<rect width="512" height="512" fill="#1B1B1B"/>
<path d="M187.905 395.96C183.665 395.96 180.211 395.013 177.545 393.12C174.878 391.2 172.905 388.667 171.625 385.52C170.371 382.373 169.745 378.947 169.745 375.24C169.745 371.56 170.451 368.12 171.865 364.92C173.278 361.72 175.371 359.133 178.145 357.16C180.918 355.187 184.358 354.2 188.465 354.2C190.758 354.2 192.838 354.44 194.705 354.92C196.571 355.4 198.385 356.36 200.145 357.8L196.865 366.28C196.065 365.08 194.891 364.16 193.345 363.52C191.825 362.853 190.385 362.52 189.025 362.52C183.211 362.52 180.305 366.733 180.305 375.16C180.305 379.587 181.025 382.8 182.465 384.8C183.931 386.8 186.118 387.8 189.025 387.8C190.945 387.8 192.638 387.44 194.105 386.72C195.571 385.973 196.678 385.187 197.425 384.36L200.465 391.48C199.718 392.28 198.251 393.227 196.065 394.32C193.878 395.413 191.158 395.96 187.905 395.96ZM232.084 396.12C229.631 396.12 227.591 395.573 225.964 394.48C224.364 393.387 223.164 391.933 222.364 390.12C221.591 388.307 221.204 386.307 221.204 384.12C221.204 382.893 221.511 381.547 222.124 380.08C222.764 378.613 223.884 377.213 225.484 375.88C227.084 374.547 229.337 373.453 232.244 372.6C235.151 371.747 238.884 371.32 243.444 371.32V369.48C243.444 367.507 242.964 365.867 242.004 364.56C241.071 363.253 239.177 362.6 236.324 362.6C234.244 362.6 232.204 362.96 230.204 363.68C228.231 364.373 226.777 365.24 225.844 366.28L222.644 358.6C224.244 357.507 226.377 356.507 229.044 355.6C231.737 354.667 234.724 354.2 238.004 354.2C241.951 354.2 245.017 354.8 247.204 356C249.391 357.2 250.924 358.907 251.804 361.12C252.684 363.307 253.124 365.88 253.124 368.84V395H244.564L243.844 389.32C241.071 393.853 237.151 396.12 232.084 396.12ZM236.324 388.44C237.524 388.44 238.804 387.96 240.164 387C241.551 386.013 242.644 384.76 243.444 383.24V377.56C243.177 377.507 242.884 377.48 242.564 377.48C242.271 377.48 241.924 377.48 241.524 377.48C240.057 377.48 238.511 377.653 236.884 378C235.284 378.32 233.924 378.893 232.804 379.72C231.684 380.547 231.124 381.693 231.124 383.16C231.124 385.08 231.551 386.44 232.404 387.24C233.257 388.04 234.564 388.44 236.324 388.44ZM278.213 395V334.2H287.973V395H278.213ZM330.202 395.96C325.962 395.96 322.508 395.013 319.842 393.12C317.175 391.2 315.202 388.667 313.922 385.52C312.668 382.373 312.042 378.947 312.042 375.24C312.042 371.56 312.748 368.12 314.162 364.92C315.575 361.72 317.668 359.133 320.442 357.16C323.215 355.187 326.655 354.2 330.762 354.2C333.055 354.2 335.135 354.44 337.002 354.92C338.868 355.4 340.682 356.36 342.442 357.8L339.162 366.28C338.362 365.08 337.188 364.16 335.642 363.52C334.122 362.853 332.682 362.52 331.322 362.52C325.508 362.52 322.602 366.733 322.602 375.16C322.602 379.587 323.322 382.8 324.762 384.8C326.228 386.8 328.415 387.8 331.322 387.8C333.242 387.8 334.935 387.44 336.402 386.72C337.868 385.973 338.975 385.187 339.722 384.36L342.762 391.48C342.015 392.28 340.548 393.227 338.362 394.32C336.175 395.413 333.455 395.96 330.202 395.96Z" fill="white"/>
<path d="M121.429 293V114.568H169.045C190.037 114.568 205.312 118.749 214.869 127.112C224.426 135.389 229.205 147.08 229.205 162.184C229.205 168.925 227.584 175.795 224.341 182.792C221.098 189.789 215.765 195.037 208.341 198.536C218.496 201.011 226.005 205.96 230.869 213.384C235.733 220.808 238.165 230.195 238.165 241.544C238.165 257.245 232.789 269.747 222.037 279.048C211.285 288.349 193.877 293 169.813 293H121.429ZM169.045 139.912H153.685V189.32H174.421C180.224 189.32 184.789 187.955 188.117 185.224C191.53 182.408 193.92 178.995 195.285 174.984C196.736 170.888 197.461 166.963 197.461 163.208C197.461 157.064 196.096 152.328 193.365 149C190.72 145.587 187.221 143.24 182.869 141.96C178.517 140.595 173.909 139.912 169.045 139.912ZM171.861 213.128H153.685V267.144H173.397C178.517 267.144 183.424 266.461 188.117 265.096C192.896 263.731 196.778 261.085 199.765 257.16C202.837 253.235 204.373 247.432 204.373 239.752C204.373 231.987 202.752 226.227 199.509 222.472C196.352 218.632 192.256 216.115 187.221 214.92C182.272 213.725 177.152 213.128 171.861 213.128ZM265.429 293V114.568H298.453V189.064H357.589V114.568H390.613V293H357.589V217.224H298.453V293H265.429Z" fill="white"/>
</g>
<defs>
<clipPath id="clip0_7_4">
<rect width="512" height="512" fill="white"/>
</clipPath>
</defs>
</svg>
